<svg xmlns="http://www.w3.org/2000/svg" viewBox="0 0 52 52" width="100%" height="100%">
        <defs>
            <linearGradient id="grad" x1="0" y1="0" x2="52" y2="52" gradientUnits="userSpaceOnUse">
                <stop offset="0%" stop-color="#0d233a"/>
                <stop offset="100%" stop-color="#050f1a"/>
            </linearGradient>
            <filter id="shadow" x="-10%" y="-10%" width="120%" height="120%">
                <feDropShadow dx="0" dy="2" stdDeviation="2" flood-opacity="0.25"/>
            </filter>
        </defs>
        
        <!-- Outer Shield Boundary -->
        <path d="M6 13 C6 13 6 4 26 4 C46 4 46 13 46 13 C46 29 36 41 26 47 C16 41 6 29 6 13 Z" fill="url(#grad)" stroke="#f57c00" stroke-width="2.5" filter="url(#shadow)"/>
        
        <!-- Inner Border -->
        <path d="M9 14 C9 14 9 6.5 26 6.5 C43 6.5 43 14 43 14 C43 27.5 34 38 26 43.5 C18 38 9 27.5 9 14 Z" fill="none" stroke="#f57c00" stroke-opacity="0.3" stroke-width="1"/>
        
        <!-- Icon Symbol -->
        
        <path d="M18 28 C18 28 22 22 26 22 C30 22 34 28 34 28 C34 28 30 33 26 33 C22 33 18 28 18 28 Z" fill="none" stroke="#f57c00" stroke-width="2"/>
        <path d="M26 22 C26 22 28 17 26 13 C24 17 26 22 26 22 Z" fill="#f57c00"/>
        <circle cx="26" cy="30" r="1.5" fill="#f57c00"/>
        
        
        <!-- Initials Text Ribbon/Label -->
        <rect x="15" y="37" width="22" height="6" rx="1.5" fill="#f57c00"/>
        <text x="26" y="42" font-family="'DM Sans', sans-serif" font-weight="800" font-size="4.8" fill="#0d233a" text-anchor="middle" letter-spacing="0.5">SS</text>
    </svg>