<svg xmlns="http://www.w3.org/2000/svg" viewBox="0 0 52 52" width="100%" height="100%">
        <defs>
            <linearGradient id="grad" x1="0" y1="0" x2="52" y2="52" gradientUnits="userSpaceOnUse">
                <stop offset="0%" stop-color="#01579b"/>
                <stop offset="100%" stop-color="#002f56"/>
            </linearGradient>
            <filter id="shadow" x="-10%" y="-10%" width="120%" height="120%">
                <feDropShadow dx="0" dy="2" stdDeviation="2" flood-opacity="0.25"/>
            </filter>
        </defs>
        
        <!-- Outer Shield Boundary -->
        <path d="M6 13 C6 13 6 4 26 4 C46 4 46 13 46 13 C46 29 36 41 26 47 C16 41 6 29 6 13 Z" fill="url(#grad)" stroke="#c49a2b" stroke-width="2.5" filter="url(#shadow)"/>
        
        <!-- Inner Border -->
        <path d="M9 14 C9 14 9 6.5 26 6.5 C43 6.5 43 14 43 14 C43 27.5 34 38 26 43.5 C18 38 9 27.5 9 14 Z" fill="none" stroke="#c49a2b" stroke-opacity="0.3" stroke-width="1"/>
        
        <!-- Icon Symbol -->
        
        <path d="M22 26 C22 20 30 20 30 26 C30 32 22 32 22 26 Z" fill="none" stroke="#c49a2b" stroke-width="2"/>
        <path d="M26 14 V19 H23 H29" stroke="#c49a2b" stroke-width="2"/>
        <circle cx="26" cy="11" r="2" fill="#c49a2b"/>
        <path d="M16 33 Q26 29 36 33" stroke="#c49a2b" stroke-width="2" fill="none"/>
        
        
        <!-- Initials Text Ribbon/Label -->
        <rect x="15" y="37" width="22" height="6" rx="1.5" fill="#c49a2b"/>
        <text x="26" y="42" font-family="'DM Sans', sans-serif" font-weight="800" font-size="4.8" fill="#01579b" text-anchor="middle" letter-spacing="0.5">LSS</text>
    </svg>